<svg id="Capa_1" enable-background="new 0 0 512 512" height="512" viewBox="0 0 512 512" width="512" xmlns="http://www.w3.org/2000/svg"><g><g><path d="m504.5 141v296.94c0 16.62-12.69 30.49-29.25 31.97l-5.75.51-99.77 8.92c-75.67 6.76-151.79 6.76-227.46 0l-105.52-9.43c-16.56-1.48-29.25-15.35-29.25-31.97v-296.94z" fill="#465a61"/><path d="m469.5 175.1v264.133c0 17.656-13.477 32.392-31.063 33.965l-68.707 6.143c-75.67 6.76-151.79 6.76-227.46 0l-105.52-9.43c-16.559-1.481-29.25-15.357-29.25-31.982v-296.929h427.9c18.833 0 34.1 15.267 34.1 34.1z" fill="#596c76"/><path d="m53.91 251.648h133.923v40h-133.923z" fill="#fed402"/><circle cx="68.91" cy="206.648" fill="#d7d0d6" r="15"/><circle cx="120.872" cy="206.648" fill="#d7d0d6" r="15"/><path d="m53.91 361.81h51.96v59.84h-51.96z" fill="#fedba6"/><path d="m53.91 361.81h28.96v59.84h-28.96z" fill="#ffefd2"/><path d="m135.87 339.23h51.96v59.83h-51.96z" fill="#fedba6"/><path d="m135.87 339.23h29.3v59.83h-29.3z" fill="#ffefd2"/><path d="m295 27.607h74.858v25h-74.858z" fill="#465a61"/><path d="m225.52 186.648h58.75v58.75h-58.75z" fill="#fd4755"/><path d="m284.27 186.648h58.75v58.75h-58.75z" fill="#d7d0d6"/><path d="m343.02 186.648h58.75v58.75h-58.75z" fill="#d7d0d6"/><path d="m401.77 186.648h58.75v58.75h-58.75z" fill="#0078c8"/><path d="m225.52 245.398h58.75v58.75h-58.75z" fill="#d7d0d6"/><path d="m284.27 245.398h58.75v58.75h-58.75z" fill="#d7d0d6"/><path d="m343.02 245.398h58.75v58.75h-58.75z" fill="#fd4755"/><path d="m401.77 245.398h58.75v58.75h-58.75z" fill="#d7d0d6"/><path d="m225.52 304.148h58.75v58.75h-58.75z" fill="#0078c8"/><path d="m284.27 304.148h58.75v58.75h-58.75z" fill="#fd4755"/><g fill="#d7d0d6"><path d="m343.02 304.148h58.75v58.75h-58.75z"/><path d="m401.77 304.148h58.75v58.75h-58.75z"/><path d="m225.52 362.898h58.75v58.75h-58.75z"/><path d="m284.27 362.898h58.75v58.75h-58.75z"/><path d="m343.02 362.898h58.75v58.75h-58.75z"/></g><path d="m401.77 362.898h58.75v58.75h-58.75z" fill="#fd4755"/></g><g><path d="m504.5 133.496h-103.983c-3.69-28.337-27.967-50.296-57.293-50.296h-214.204c-9.731 0-17.648-7.917-17.648-17.648 0-9.73 7.917-17.647 17.648-17.647h158.48c-.44 5.204.667 12.203 7.5 12.203h74.857c6.633 0 8.032-7.008 7.5-12.203h12.143c9.386 0 9.813-15 0-15h-12.143c.468-5.314-.398-12.797-7.5-12.797h-74.857c-6.907 0-8.058 7.495-7.5 12.797h-158.48c-18.002 0-32.648 14.646-32.648 32.647s14.646 32.648 32.648 32.648h214.204c21.039 0 38.567 15.264 42.125 35.296h-377.849c-4.142 0-7.5 3.357-7.5 7.5v296.94c0 20.649 15.511 37.607 36.079 39.446l105.523 9.426c37.954 3.39 76.176 5.085 114.397 5.085s76.443-1.695 114.397-5.085c9.349-.836 8.44-15.782-1.334-14.941-75.023 6.701-151.104 6.701-226.126 0l-105.523-9.425c-12.777-1.143-22.413-11.678-22.413-24.506v-289.44h482v289.44c0 12.828-9.636 23.363-22.414 24.505l-70.872 6.33c-9.349.836-8.437 15.784 1.334 14.941l70.873-6.331c20.568-1.838 36.079-18.796 36.079-39.445v-296.94c0-4.143-3.358-7.5-7.5-7.5zm-202-98.389h59.857v10h-59.857z"/><path d="m195.333 251.648c0-4.143-3.358-7.5-7.5-7.5h-78.167c-4.142 0-7.5 3.357-7.5 7.5s3.358 7.5 7.5 7.5h70.667v25h-118.923v-25h14.257c4.142 0 7.5-3.357 7.5-7.5s-3.358-7.5-7.5-7.5h-21.757c-4.142 0-7.5 3.357-7.5 7.5v40c0 4.143 3.358 7.5 7.5 7.5h133.923c4.142 0 7.5-3.357 7.5-7.5z"/><path d="m68.91 229.148c12.407 0 22.5-10.094 22.5-22.5s-10.093-22.5-22.5-22.5-22.5 10.094-22.5 22.5 10.093 22.5 22.5 22.5zm0-30c4.136 0 7.5 3.364 7.5 7.5s-3.364 7.5-7.5 7.5-7.5-3.364-7.5-7.5 3.364-7.5 7.5-7.5z"/><path d="m120.872 229.148c12.407 0 22.5-10.094 22.5-22.5s-10.093-22.5-22.5-22.5-22.5 10.094-22.5 22.5 10.093 22.5 22.5 22.5zm0-30c4.136 0 7.5 3.364 7.5 7.5s-3.364 7.5-7.5 7.5-7.5-3.364-7.5-7.5 3.364-7.5 7.5-7.5z"/><path d="m79.891 309.148c-4.142 0-7.5 3.357-7.5 7.5v37.666h-18.481c-4.142 0-7.5 3.357-7.5 7.5v59.834c0 4.143 3.358 7.5 7.5 7.5h51.961c4.142 0 7.5-3.357 7.5-7.5v-59.834c0-4.143-3.358-7.5-7.5-7.5h-18.48v-37.666c0-4.143-3.358-7.5-7.5-7.5zm18.481 105h-36.962v-44.834h36.961v44.834z"/><path d="m161.85 429.15c4.142 0 7.5-3.357 7.5-7.5v-15.09h18.48c4.142 0 7.5-3.357 7.5-7.5v-59.83c0-4.143-3.358-7.5-7.5-7.5h-18.48v-15.08c0-9.386-15-9.813-15 0v15.08h-18.48c-4.142 0-7.5 3.357-7.5 7.5v59.83c0 4.143 3.358 7.5 7.5 7.5h18.48v15.09c0 4.142 3.358 7.5 7.5 7.5zm-18.48-82.42h36.96v44.83h-36.96z"/><path d="m460.52 429.148c4.142 0 7.5-3.357 7.5-7.5v-235c0-4.143-3.358-7.5-7.5-7.5h-235c-4.142 0-7.5 3.357-7.5 7.5v235c0 4.143 3.358 7.5 7.5 7.5zm-51.25-117.5h43.75v43.75h-43.75zm43.75-15h-43.75v-43.75h43.75zm-58.75 0h-43.75v-43.75h43.75zm-58.75 0h-43.75v-43.75h43.75zm-58.75 0h-43.75v-43.75h43.75zm-43.75 15h43.75v43.75h-43.75zm58.75 0h43.75v43.75h-43.75zm58.75 0h43.75v43.75h-43.75zm102.5 102.5h-43.75v-43.75h43.75zm0-176.25h-43.75v-43.75h43.75zm-58.75 0h-43.75v-43.75h43.75zm-58.75 0h-43.75v-43.75h43.75zm-102.5-43.75h43.75v43.75h-43.75zm0 176.25h43.75v43.75h-43.75zm58.75 0h43.75v43.75h-43.75zm58.75 0h43.75v43.75h-43.75z"/></g></g></svg>